<svg width="32" height="32" viewBox="0 0 32 32" fill="none" xmlns="http://www.w3.org/2000/svg">
<path d="M17.1067 2.90668C16.7592 2.74821 16.3818 2.6662 16 2.6662C15.6181 2.6662 15.2407 2.74821 14.8933 2.90668L3.46666 8.10667C3.23006 8.211 3.0289 8.38187 2.88768 8.59848C2.74645 8.81509 2.67126 9.06809 2.67126 9.32667C2.67126 9.58525 2.74645 9.83826 2.88768 10.0549C3.0289 10.2715 3.23006 10.4423 3.46666 10.5467L14.9067 15.76C15.2541 15.9185 15.6315 16.0005 16.0133 16.0005C16.3952 16.0005 16.7726 15.9185 17.12 15.76L28.56 10.56C28.7966 10.4557 28.9978 10.2848 29.139 10.0682C29.2802 9.85159 29.3554 9.59859 29.3554 9.34001C29.3554 9.08143 29.2802 8.82843 29.139 8.61182C28.9978 8.39521 28.7966 8.22433 28.56 8.12001L17.1067 2.90668Z" stroke="#686C6E" stroke-width="2.66667" stroke-linecap="round" stroke-linejoin="round"/>
<path d="M8.10661 12.6667L3.43995 14.8C3.21088 14.9077 3.0172 15.0783 2.88154 15.292C2.74587 15.5057 2.67383 15.7536 2.67383 16.0067C2.67383 16.2598 2.74587 16.5077 2.88154 16.7214C3.0172 16.935 3.21088 17.1057 3.43995 17.2134L14.9066 22.4267C15.2522 22.5832 15.6272 22.6641 16.0066 22.6641C16.386 22.6641 16.761 22.5832 17.1066 22.4267L28.5466 17.2267C28.7832 17.1224 28.9844 16.9515 29.1256 16.7349C29.2668 16.5183 29.342 16.2653 29.342 16.0067C29.342 15.7481 29.2668 15.4951 29.1256 15.2785C28.9844 15.0619 28.7832 14.891 28.5466 14.7867L23.8799 12.6667" stroke="#686C6E" stroke-width="2.66667" stroke-linecap="round" stroke-linejoin="round"/>
<path d="M8.10661 19.3333L3.43995 21.4667C3.21088 21.5744 3.0172 21.745 2.88154 21.9587C2.74587 22.1724 2.67383 22.4202 2.67383 22.6733C2.67383 22.9264 2.74587 23.1743 2.88154 23.388C3.0172 23.6017 3.21088 23.7723 3.43995 23.88L14.9066 29.0933C15.2522 29.2498 15.6272 29.3308 16.0066 29.3308C16.386 29.3308 16.761 29.2498 17.1066 29.0933L28.5466 23.8933C28.7832 23.789 28.9844 23.6181 29.1256 23.4015C29.2668 23.1849 29.342 22.9319 29.342 22.6733C29.342 22.4148 29.2668 22.1618 29.1256 21.9452C28.9844 21.7285 28.7832 21.5577 28.5466 21.4533L23.8799 19.3333" stroke="#686C6E" stroke-width="2.66667" stroke-linecap="round" stroke-linejoin="round"/>
</svg>
