<svg width="32" height="32" viewBox="0 0 32 32" fill="none" xmlns="http://www.w3.org/2000/svg">
<path d="M13.1735 13.1733C12.7805 13.5395 12.4653 13.9811 12.2467 14.4718C12.028 14.9625 11.9105 15.4921 11.901 16.0292C11.8915 16.5663 11.9903 17.0998 12.1915 17.5979C12.3927 18.0959 12.6921 18.5484 13.072 18.9282C13.4518 19.308 13.9042 19.6075 14.4023 19.8087C14.9004 20.0098 15.4339 20.1086 15.971 20.0992C16.508 20.0897 17.0377 19.9721 17.5284 19.7535C18.019 19.5349 18.4606 19.2197 18.8268 18.8267" stroke="#AEB1B1" stroke-width="2.66667" stroke-linecap="round" stroke-linejoin="round"/>
<path d="M14.3066 6.77329C14.8684 6.70331 15.4339 6.66768 16 6.66663C25.3333 6.66663 29.3333 16 29.3333 16C28.7372 17.2761 27.9896 18.4759 27.1066 19.5733" stroke="#AEB1B1" stroke-width="2.66667" stroke-linecap="round" stroke-linejoin="round"/>
<path d="M8.81317 8.81335C6.1615 10.6195 4.03967 13.1004 2.6665 16C2.6665 16 6.6665 25.3334 15.9998 25.3334C18.5544 25.3402 21.0542 24.5935 23.1865 23.1867" stroke="#AEB1B1" stroke-width="2.66667" stroke-linecap="round" stroke-linejoin="round"/>
<path d="M2.6665 2.66663L29.3332 29.3333" stroke="#AEB1B1" stroke-width="2.66667" stroke-linecap="round" stroke-linejoin="round"/>
</svg>
