<svg width="32" height="32" viewBox="0 0 32 32" fill="none" xmlns="http://www.w3.org/2000/svg">
<path d="M16 22.6666V29.3333" stroke="#C940F9" stroke-width="2.66667" stroke-linecap="round" stroke-linejoin="round"/>
<path d="M6.6665 22.6666H25.3332V20.32C25.3329 19.8238 25.1943 19.3376 24.9328 18.916C24.6713 18.4944 24.2975 18.1541 23.8532 17.9333L21.4798 16.7333C21.0356 16.5125 20.6617 16.1722 20.4002 15.7506C20.1388 15.3289 20.0001 14.8427 19.9998 14.3466V7.99996H21.3332C22.0404 7.99996 22.7187 7.71901 23.2188 7.21891C23.7189 6.71881 23.9998 6.04054 23.9998 5.33329C23.9998 4.62605 23.7189 3.94777 23.2188 3.44767C22.7187 2.94758 22.0404 2.66663 21.3332 2.66663H10.6665C9.95926 2.66663 9.28098 2.94758 8.78089 3.44767C8.28079 3.94777 7.99984 4.62605 7.99984 5.33329C7.99984 6.04054 8.28079 6.71881 8.78089 7.21891C9.28098 7.71901 9.95926 7.99996 10.6665 7.99996H11.9998V14.3466C11.9996 14.8427 11.8609 15.3289 11.5995 15.7506C11.338 16.1722 10.9641 16.5125 10.5198 16.7333L8.1465 17.9333C7.70222 18.1541 7.32833 18.4944 7.06688 18.916C6.80542 19.3376 6.66677 19.8238 6.6665 20.32V22.6666Z" fill="#C940F9" stroke="#C940F9" stroke-width="2.66667" stroke-linecap="round" stroke-linejoin="round"/>
</svg>
