<svg width="32" height="32" viewBox="0 0 32 32" fill="none" xmlns="http://www.w3.org/2000/svg">
<path d="M5.33333 17.3333C6.06971 17.3333 6.66667 16.7363 6.66667 16C6.66667 15.2636 6.06971 14.6666 5.33333 14.6666C4.59695 14.6666 4 15.2636 4 16C4 16.7363 4.59695 17.3333 5.33333 17.3333Z" stroke="#AEB1B1" stroke-width="2.66667" stroke-linecap="round" stroke-linejoin="round"/>
<path d="M16.0003 17.3333C16.7367 17.3333 17.3337 16.7363 17.3337 16C17.3337 15.2636 16.7367 14.6666 16.0003 14.6666C15.2639 14.6666 14.667 15.2636 14.667 16C14.667 16.7363 15.2639 17.3333 16.0003 17.3333Z" stroke="#AEB1B1" stroke-width="2.66667" stroke-linecap="round" stroke-linejoin="round"/>
<path d="M26.6668 17.3333C27.4032 17.3333 28.0002 16.7363 28.0002 16C28.0002 15.2636 27.4032 14.6666 26.6668 14.6666C25.9304 14.6666 25.3335 15.2636 25.3335 16C25.3335 16.7363 25.9304 17.3333 26.6668 17.3333Z" stroke="#AEB1B1" stroke-width="2.66667" stroke-linecap="round" stroke-linejoin="round"/>
</svg>
