<svg width="32" height="32" viewBox="0 0 32 32" fill="none" xmlns="http://www.w3.org/2000/svg">
<path d="M22.6665 5.33337H19.9998C19.2635 5.33337 18.6665 5.93033 18.6665 6.66671V25.3334C18.6665 26.0698 19.2635 26.6667 19.9998 26.6667H22.6665C23.4029 26.6667 23.9998 26.0698 23.9998 25.3334V6.66671C23.9998 5.93033 23.4029 5.33337 22.6665 5.33337Z" stroke="#AEB1B1" stroke-width="2.66667" stroke-linecap="round" stroke-linejoin="round"/>
<path d="M12 5.33337H9.33333C8.59695 5.33337 8 5.93033 8 6.66671V25.3334C8 26.0698 8.59695 26.6667 9.33333 26.6667H12C12.7364 26.6667 13.3333 26.0698 13.3333 25.3334V6.66671C13.3333 5.93033 12.7364 5.33337 12 5.33337Z" stroke="#AEB1B1" stroke-width="2.66667" stroke-linecap="round" stroke-linejoin="round"/>
</svg>
