<svg width="32" height="32" viewBox="0 0 32 32" fill="none" xmlns="http://www.w3.org/2000/svg">
<path d="M23.0015 3.93276C23.3241 3.55151 23.7232 3.24118 24.1732 3.02155C24.6233 2.80192 25.1146 2.67782 25.6156 2.65714C26.1167 2.63647 26.6166 2.71968 27.0835 2.90147C27.5504 3.08326 27.974 3.35964 28.3273 3.713C28.6807 4.06636 28.956 4.48895 29.1358 4.95382C29.3156 5.4187 29.3959 5.91567 29.3715 6.41306C29.3472 6.91045 29.2188 7.39734 28.9944 7.84271C28.7701 8.28808 28.4547 8.68216 28.0685 8.99982L10.9672 26.1011L4 28.0013L5.90015 21.0341L23.0015 3.93276Z" stroke="#AEB1B1" stroke-width="2.53353" stroke-linecap="round" stroke-linejoin="round"/>
<path d="M20.4678 6.46631L25.5348 11.5334" stroke="#AEB1B1" stroke-width="2.53353" stroke-linecap="round" stroke-linejoin="round"/>
</svg>
