<svg width="32" height="32" viewBox="0 0 32 32" fill="none" xmlns="http://www.w3.org/2000/svg">
<path d="M16.2935 2.6665H15.7068C14.9995 2.6665 14.3213 2.94746 13.8212 3.44755C13.3211 3.94765 13.0401 4.62593 13.0401 5.33317V5.57317C13.0396 6.0408 12.9162 6.50009 12.6822 6.90495C12.4482 7.30982 12.1118 7.64602 11.7068 7.87984L11.1335 8.21317C10.7281 8.44722 10.2682 8.57044 9.80012 8.57044C9.33203 8.57044 8.87218 8.44722 8.46679 8.21317L8.26679 8.1065C7.65488 7.75352 6.92791 7.65776 6.24546 7.84025C5.56301 8.02273 4.98086 8.46855 4.62679 9.07984L4.33346 9.5865C3.98048 10.1984 3.88472 10.9254 4.0672 11.6078C4.24969 12.2903 4.69551 12.8724 5.30679 13.2265L5.50679 13.3598C5.90983 13.5925 6.24495 13.9266 6.47886 14.3289C6.71277 14.7313 6.83732 15.1878 6.84012 15.6532V16.3332C6.84199 16.8031 6.71966 17.2651 6.48552 17.6725C6.25137 18.0799 5.91374 18.4182 5.50679 18.6532L5.30679 18.7732C4.69551 19.1272 4.24969 19.7094 4.0672 20.3918C3.88472 21.0743 3.98048 21.8013 4.33346 22.4132L4.62679 22.9198C4.98086 23.5311 5.56301 23.9769 6.24546 24.1594C6.92791 24.3419 7.65488 24.2462 8.26679 23.8932L8.46679 23.7865C8.87218 23.5525 9.33203 23.4292 9.80012 23.4292C10.2682 23.4292 10.7281 23.5525 11.1335 23.7865L11.7068 24.1198C12.1118 24.3537 12.4482 24.6899 12.6822 25.0947C12.9162 25.4996 13.0396 25.9589 13.0401 26.4265V26.6665C13.0401 27.3737 13.3211 28.052 13.8212 28.5521C14.3213 29.0522 14.9995 29.3332 15.7068 29.3332H16.2935C17.0007 29.3332 17.679 29.0522 18.1791 28.5521C18.6792 28.052 18.9601 27.3737 18.9601 26.6665V26.4265C18.9606 25.9589 19.084 25.4996 19.3181 25.0947C19.5521 24.6899 19.8885 24.3537 20.2935 24.1198L20.8668 23.7865C21.2722 23.5525 21.732 23.4292 22.2001 23.4292C22.6682 23.4292 23.1281 23.5525 23.5335 23.7865L23.7335 23.8932C24.3454 24.2462 25.0723 24.3419 25.7548 24.1594C26.4372 23.9769 27.0194 23.5311 27.3735 22.9198L27.6668 22.3998C28.0198 21.7879 28.1155 21.061 27.933 20.3785C27.7506 19.6961 27.3047 19.1139 26.6935 18.7598L26.4935 18.6532C26.0865 18.4182 25.7489 18.0799 25.5147 17.6725C25.2806 17.2651 25.1583 16.8031 25.1601 16.3332V15.6665C25.1583 15.1966 25.2806 14.7346 25.5147 14.3272C25.7489 13.9198 26.0865 13.5814 26.4935 13.3465L26.6935 13.2265C27.3047 12.8724 27.7506 12.2903 27.933 11.6078C28.1155 10.9254 28.0198 10.1984 27.6668 9.5865L27.3735 9.07984C27.0194 8.46855 26.4372 8.02273 25.7548 7.84025C25.0723 7.65776 24.3454 7.75352 23.7335 8.1065L23.5335 8.21317C23.1281 8.44722 22.6682 8.57044 22.2001 8.57044C21.732 8.57044 21.2722 8.44722 20.8668 8.21317L20.2935 7.87984C19.8885 7.64602 19.5521 7.30982 19.3181 6.90495C19.084 6.50009 18.9606 6.0408 18.9601 5.57317V5.33317C18.9601 4.62593 18.6792 3.94765 18.1791 3.44755C17.679 2.94746 17.0007 2.6665 16.2935 2.6665Z" stroke="#686C6E" stroke-width="2.66667" stroke-linecap="round" stroke-linejoin="round"/>
<path d="M16.0001 20C18.2093 20 20.0001 18.2091 20.0001 16C20.0001 13.7909 18.2093 12 16.0001 12C13.791 12 12.0001 13.7909 12.0001 16C12.0001 18.2091 13.791 20 16.0001 20Z" stroke="#686C6E" stroke-width="2.66667" stroke-linecap="round" stroke-linejoin="round"/>
</svg>
